<svg width="148" height="148" viewBox="0 0 148 148" fill="none" xmlns="http://www.w3.org/2000/svg">
<path d="M74 148C114.869 148 148 114.869 148 74C148 33.1309 114.869 0 74 0C33.1309 0 0 33.1309 0 74C0 114.869 33.1309 148 74 148Z" fill="#1253FA"/>
<path fill-rule="evenodd" clip-rule="evenodd" d="M77.5327 109.177C75.3427 110.274 72.6917 110.274 70.5017 109.177C47.5645 97.6563 42.2624 62.5454 44.4524 57.4982C46.5271 52.7802 55.2871 45.758 69.0033 42.576C72.2306 41.808 75.6885 41.808 79.0311 42.576C92.8626 45.758 101.623 52.7802 103.582 57.4982C105.657 62.4357 100.47 97.6563 77.5327 109.177ZM82 70C82 73.014 80.3332 75.6387 77.8712 77.0027L79.6887 85.5857C79.9521 86.8294 79.0034 88 77.7321 88H70.4679C69.1966 88 68.2479 86.8294 68.5113 85.5857L70.3084 77.0992C67.7482 75.7651 66 73.0867 66 70C66 65.5817 69.5817 62 74 62C78.4183 62 82 65.5817 82 70Z" fill="#ECF1FF"/>
<path fill-rule="evenodd" clip-rule="evenodd" d="M55.5201 28.8664C53.9867 29.4939 52.2036 28.8548 51.5011 27.3543L49.8052 23.7316C49.1027 22.231 49.7473 20.4385 51.2764 19.8004C58.4809 16.7942 66.2036 15 74.0299 15C81.8152 15 89.5385 16.7869 96.7182 19.7718C98.2481 20.4079 98.8943 22.1998 98.1933 23.701L96.5008 27.3253C95.7997 28.8266 94.0172 29.4673 92.4829 28.842C86.6304 26.4569 80.355 25 74.0299 25C67.6664 25 61.3942 26.4626 55.5201 28.8664ZM38.8081 35.5159C39.8918 36.7692 39.7459 38.6565 38.5654 39.8192C34.5652 43.7588 31.4966 48.2503 29.5366 53.0816C24.9765 64.2943 27.0888 76.9703 30.8047 88.0932C37.188 106.563 53.0617 125 74.0299 125C95.1019 125 110.708 106.461 117.165 88.0455C121.018 77.0743 122.919 64.1319 118.422 53.0937C116.43 48.2373 113.371 43.7436 109.414 39.8157C108.238 38.6484 108.099 36.7606 109.187 35.5112L111.814 32.4947C112.902 31.2453 114.804 31.1086 115.993 32.2619C121.049 37.1636 125.058 42.9203 127.676 49.3049C131.007 57.4295 131.596 66.3553 130.451 74.9969C127.732 97.2834 115.388 119.115 95.1535 129.763C88.6811 133.224 81.4011 135 74.0299 135C66.663 135 59.33 133.198 52.8092 129.768C32.6329 119.081 20.2031 97.203 17.4995 74.9689L17.499 74.9653C16.3627 65.5633 17.1192 57.0558 20.2716 49.3184C22.8685 42.919 26.9105 37.1515 32.0134 32.2419C33.2074 31.0932 35.1084 31.2367 36.192 32.49L38.8081 35.5159Z" fill="#ECF1FF"/>
</svg>
