<svg width="452" height="204" viewBox="0 0 452 204" fill="none" xmlns="http://www.w3.org/2000/svg">
<path d="M2.73119 163.584H74.8345C75.927 163.584 76.4733 164.13 76.4733 165.223V186.799C76.4733 188.438 77.5657 189.53 79.2044 189.53H117.441C119.08 189.53 120.172 188.438 120.172 186.799V165.223C120.172 164.13 120.719 163.584 121.811 163.584H132.19C133.828 163.584 134.921 162.491 134.921 160.853V126.986C134.921 125.347 133.828 124.255 132.19 124.255H121.538C120.445 124.255 120.172 123.708 120.172 122.616V89.8417C120.172 88.203 119.08 87.1105 117.441 87.1105H79.2044C77.5657 87.1105 76.4733 88.203 76.4733 89.8417V122.616C76.4733 123.708 75.927 124.255 74.8345 124.255H48.6152V123.708L100.235 6.54047C101.054 4.90175 100.235 3.80929 98.3228 3.80929H55.4431C53.2582 3.80929 52.1657 4.62863 51.6195 5.99422L0.546238 122.889C1.34538e-07 123.982 0 124.801 0 125.893V160.853C0 162.491 1.09248 163.584 2.73119 163.584Z" fill="#E6EBF8"/>
<path d="M161.556 152.932C169.75 178.059 190.234 192.808 220.823 192.808C251.685 192.808 271.896 178.059 280.363 152.932C283.094 143.919 284.46 135.999 284.46 96.6697C284.46 57.3406 283.094 49.4201 280.363 40.4072C271.896 15.2803 251.685 0.53186 220.823 0.53186C190.234 0.53186 169.75 15.2803 161.556 40.4072C158.552 49.4201 157.186 57.3406 157.186 96.6697C157.186 135.999 158.552 143.919 161.556 152.932ZM205.801 145.012C204.163 140.642 203.616 136.545 203.616 96.6697C203.616 56.7943 204.163 52.6975 205.801 48.3277C207.986 41.4997 212.903 38.2223 220.823 38.2223C228.743 38.2223 233.933 41.4997 236.118 48.3277C237.483 52.6975 238.029 56.7943 238.029 96.6697C238.029 136.545 237.483 140.642 236.118 145.012C233.933 151.84 228.743 155.117 220.823 155.117C212.903 155.117 207.986 151.84 205.801 145.012Z" fill="#E6EBF8"/>
<path d="M309.456 163.584H381.56C382.652 163.584 383.198 164.13 383.198 165.223V186.799C383.198 188.438 384.291 189.53 385.93 189.53H424.166C425.805 189.53 426.898 188.438 426.898 186.799V165.223C426.898 164.13 427.444 163.584 428.536 163.584H438.915C440.553 163.584 441.646 162.491 441.646 160.853V126.986C441.646 125.347 440.553 124.255 438.915 124.255H428.263C427.171 124.255 426.898 123.708 426.898 122.616V89.8417C426.898 88.203 425.805 87.1105 424.166 87.1105H385.93C384.291 87.1105 383.198 88.203 383.198 89.8417V122.616C383.198 123.708 382.652 124.255 381.56 124.255H355.34V123.708L406.96 6.54047C407.779 4.90175 406.96 3.80929 405.048 3.80929H362.168C359.983 3.80929 358.891 4.62863 358.345 5.99422L307.271 122.889C306.725 123.982 306.725 124.801 306.725 125.893V160.853C306.725 162.491 307.818 163.584 309.456 163.584Z" fill="#E6EBF8"/>
<path d="M289.315 162.266L289.32 162.251C292.099 153.081 293.46 145.024 293.46 105.698C293.46 66.3724 292.099 58.3162 289.32 49.1459L289.315 49.1312L289.311 49.1166C285.017 36.3748 277.727 26.2165 267.556 19.2506C257.39 12.2873 244.414 8.56055 228.823 8.56055C213.367 8.56055 200.392 12.2878 190.226 19.2506C180.057 26.2158 172.764 36.3749 168.607 49.1226C165.545 58.3079 164.186 66.384 164.186 105.698C164.186 145.012 165.545 153.089 168.606 162.274C172.764 175.022 180.057 185.181 190.226 192.146C200.392 199.109 213.367 202.836 228.823 202.836C244.414 202.836 257.39 199.109 267.556 192.146C277.727 185.18 285.017 175.022 289.311 162.28L289.315 162.266ZM214.754 153.736L214.746 153.712L214.738 153.689C213.968 151.638 213.432 149.634 213.093 143.132C212.753 136.608 212.616 125.641 212.616 105.698C212.616 85.7557 212.753 74.7891 213.093 68.2648C213.432 61.7624 213.968 59.7588 214.738 57.7075L214.746 57.6845L214.754 57.6611C215.792 54.4176 217.449 52.097 219.719 50.5734C221.999 49.0428 224.996 48.2509 228.823 48.2509C232.65 48.2509 235.721 49.043 238.074 50.5803C240.414 52.1088 242.131 54.4302 243.164 57.6573C243.811 59.7298 244.282 61.7546 244.587 68.2596C244.893 74.7874 245.029 85.7573 245.029 105.698C245.029 125.639 244.893 136.609 244.587 143.137C244.282 149.642 243.811 151.667 243.164 153.739C242.131 156.967 240.414 159.288 238.074 160.816C235.721 162.354 232.65 163.146 228.823 163.146C224.996 163.146 221.999 162.354 219.719 160.823C217.449 159.3 215.792 156.979 214.754 153.736ZM10.7312 173.612H82.8345C83.2266 173.612 83.337 173.71 83.3565 173.729C83.3759 173.749 83.4733 173.859 83.4733 174.251V195.828C83.4733 196.874 83.8265 197.824 84.5172 198.515C85.208 199.206 86.1578 199.559 87.2044 199.559H125.441C126.488 199.559 127.438 199.206 128.128 198.515C128.819 197.824 129.172 196.874 129.172 195.828V174.251C129.172 173.859 129.27 173.749 129.289 173.729C129.309 173.71 129.419 173.612 129.811 173.612H140.19C141.236 173.612 142.186 173.259 142.877 172.569C143.567 171.878 143.921 170.928 143.921 169.881V136.015C143.921 134.968 143.567 134.018 142.877 133.327C142.186 132.637 141.236 132.283 140.19 132.283H129.538C129.37 132.283 129.279 132.265 129.237 132.252C129.23 132.234 129.221 132.203 129.211 132.158C129.188 132.046 129.172 131.883 129.172 131.645V98.8704C129.172 97.8238 128.819 96.8739 128.128 96.1832C127.438 95.4924 126.488 95.1392 125.441 95.1392H87.2044C86.1578 95.1392 85.208 95.4924 84.5172 96.1832C83.8265 96.8739 83.4733 97.8238 83.4733 98.8704V131.645C83.4733 132.037 83.3759 132.147 83.3565 132.167C83.337 132.186 83.2266 132.283 82.8345 132.283H57.9078L109.14 15.9933C109.628 15.0054 109.754 13.9003 109.117 13.0078C108.503 12.1492 107.423 11.838 106.323 11.838H63.4431C62.2319 11.838 61.2145 12.0644 60.3953 12.5651C59.5668 13.0713 59.0341 13.8011 58.6971 14.6362L7.63984 131.495C6.9998 132.787 6.9999 133.802 7 134.881L7 134.922V169.881C7 170.928 7.35323 171.878 8.04397 172.569C8.73471 173.259 9.68459 173.612 10.7312 173.612ZM317.456 173.612H389.56C389.952 173.612 390.062 173.71 390.082 173.729C390.101 173.749 390.198 173.859 390.198 174.251V195.828C390.198 196.874 390.552 197.824 391.242 198.515C391.933 199.206 392.883 199.559 393.93 199.559H432.166C433.213 199.559 434.163 199.206 434.854 198.515C435.544 197.824 435.898 196.874 435.898 195.828V174.251C435.898 173.859 435.995 173.749 436.014 173.729C436.034 173.71 436.144 173.612 436.536 173.612H446.915C447.961 173.612 448.911 173.259 449.602 172.569C450.293 171.878 450.646 170.928 450.646 169.881V136.015C450.646 134.968 450.293 134.018 449.602 133.327C448.911 132.637 447.961 132.283 446.915 132.283H436.263C436.095 132.283 436.004 132.265 435.962 132.252C435.955 132.234 435.946 132.203 435.936 132.158C435.913 132.046 435.898 131.883 435.898 131.645V98.8704C435.898 97.8238 435.544 96.8739 434.854 96.1832C434.163 95.4924 433.213 95.1392 432.166 95.1392H393.93C392.883 95.1392 391.933 95.4924 391.242 96.1832C390.552 96.8739 390.198 97.8238 390.198 98.8704V131.645C390.198 132.037 390.101 132.147 390.082 132.167C390.062 132.186 389.952 132.283 389.56 132.283H364.633L415.866 15.9935C416.353 15.0055 416.479 13.9003 415.842 13.0078C415.229 12.1492 414.148 11.838 413.048 11.838H370.168C368.957 11.838 367.94 12.0644 367.121 12.5651C366.292 13.0713 365.759 13.801 365.422 14.636L314.365 131.494C313.725 132.787 313.725 133.802 313.725 134.881V134.922V169.881C313.725 170.928 314.078 171.878 314.769 172.569C315.46 173.259 316.41 173.612 317.456 173.612Z" stroke="#1253FA" stroke-width="2"/>
</svg>
