<svg width="21" height="24" viewBox="0 0 21 24" fill="none" xmlns="http://www.w3.org/2000/svg">
<path d="M17.166 1.31184C17.4737 1.18228 17.7652 1.06892 18.0567 0.955564C17.9271 0.858398 17.7652 0.732891 17.6032 0.607385C17.4413 0.481879 17.2793 0.356374 17.1498 0.259208C16.7611 -0.0322902 16.2105 -0.0808732 15.5628 0.178236L2.10526 5.57095C0.939271 6.04058 0 7.35233 0 8.50212L0.0323887 20.0163C0.0323887 20.4535 0.161943 20.826 0.421053 21.0527C0.71255 21.3118 1.61943 22.0406 1.61943 22.0406V9.65192C1.61943 8.50212 2.54251 7.19038 3.7085 6.72075C3.69733 6.72075 8.52955 4.78031 12.6141 3.14012C14.453 2.40168 16.1404 1.72409 17.166 1.31184Z" fill="#6851FF"/>
<path d="M18.6073 2.47783L5.36029 7.80577C4.1943 8.2754 3.28742 9.58715 3.28742 10.7369V13.5548L20.7287 6.55881V3.7248C20.7287 2.575 19.7732 2.02439 18.6073 2.47783Z" fill="#6851FF"/>
<path d="M5.40888 23.8382C4.24288 24.3078 3.28742 23.7572 3.28742 22.6074V16.8098L20.7287 9.81386V15.5952C20.7449 16.745 19.8218 18.0568 18.6558 18.5264L5.40888 23.8382Z" fill="#6851FF"/>
</svg>
