<svg width="42" height="46" viewBox="0 0 42 46" fill="none" xmlns="http://www.w3.org/2000/svg">
<path d="M12 11C18.0751 11 23 8.76142 23 6C23 3.23858 18.0751 1 12 1C5.92487 1 1 3.23858 1 6C1 8.76142 5.92487 11 12 11Z" stroke="#1253FA" stroke-width="1.5" stroke-miterlimit="10" stroke-linecap="round" stroke-linejoin="round"/>
<path d="M23 6V13C23 15.761 18.075 18 12 18C5.925 18 1 15.761 1 13V6" stroke="#1253FA" stroke-width="1.5" stroke-miterlimit="10" stroke-linecap="round" stroke-linejoin="round"/>
<path d="M19 23.857C17.098 24.571 14.659 25 12 25C5.925 25 1 22.761 1 20V13" stroke="#1253FA" stroke-width="1.5" stroke-miterlimit="10" stroke-linecap="round" stroke-linejoin="round"/>
<path d="M18.999 30.857C17.098 31.571 14.659 32 12 32C5.925 32 1 29.761 1 27V20" stroke="#1253FA" stroke-width="1.5" stroke-miterlimit="10" stroke-linecap="round" stroke-linejoin="round"/>
<path d="M19 37.857C17.098 38.571 14.659 39 12 39C5.925 39 1 36.761 1 34V27" stroke="#1253FA" stroke-width="1.5" stroke-miterlimit="10" stroke-linecap="round" stroke-linejoin="round"/>
<path d="M30 24C36.0751 24 41 21.7614 41 19C41 16.2386 36.0751 14 30 14C23.9249 14 19 16.2386 19 19C19 21.7614 23.9249 24 30 24Z" fill="#ECF1FF"/>
<path d="M41 19V40C41 42.761 36.075 45 30 45C23.925 45 19 42.761 19 40V19" fill="#ECF1FF"/>
<path d="M30 24C36.0751 24 41 21.7614 41 19C41 16.2386 36.0751 14 30 14C23.9249 14 19 16.2386 19 19C19 21.7614 23.9249 24 30 24Z" stroke="#1253FA" stroke-width="1.5" stroke-miterlimit="10" stroke-linecap="round" stroke-linejoin="round"/>
<path d="M41 19V26C41 28.761 36.075 31 30 31C23.925 31 19 28.761 19 26V19" stroke="#1253FA" stroke-width="1.5" stroke-miterlimit="10" stroke-linecap="round" stroke-linejoin="round"/>
<path d="M41 26V33C41 35.761 36.075 38 30 38C23.925 38 19 35.761 19 33V26" stroke="#1253FA" stroke-width="1.5" stroke-miterlimit="10" stroke-linecap="round" stroke-linejoin="round"/>
<path d="M41 33V40C41 42.761 36.075 45 30 45C23.925 45 19 42.761 19 40V33" stroke="#1253FA" stroke-width="1.5" stroke-miterlimit="10" stroke-linecap="round" stroke-linejoin="round"/>
</svg>
