<?xml version="1.0" encoding="utf-8"?>
<!-- Generator: Adobe Illustrator 24.0.1, SVG Export Plug-In . SVG Version: 6.00 Build 0)  -->
<svg version="1.1" id="Layer_1" xmlns="http://www.w3.org/2000/svg" xmlns:xlink="http://www.w3.org/1999/xlink" x="0px" y="0px"
	 viewBox="0 0 111 26" style="enable-background:new 0 0 111 26;" xml:space="preserve">
<style type="text/css">
	.st0{fill:#1253FA;}
	.st1{fill-rule:evenodd;clip-rule:evenodd;fill:#061439;}
</style>
<path class="st0" d="M19.3,6.5c-1.1-0.6-2.4-1-3.7-1.1c-1.2-0.2-2.4-0.1-3.6-0.1l-6,0v7.9h4.5v5.4c0,0,1.8-0.5,1.9-3
	c0-1,0-1.9,0-2.7v-1.8H8.3V7.4h6.1c3.1,0,6.1,1.5,7.5,4.4c1,2.1,0.7,4.2,0.6,5c-0.3,1.7-1.1,3.2-2.2,4.3c-2.6,2.7-6.9,3.9-10.5,3.7
	c-0.7,0-1.4-0.1-2.1-0.3c-0.6-0.1-1.3-0.3-1.9-0.6c0,0,0,0,0.1,0c0.1,0.1,0.3,0.2,0.5,0.3c0.2,0.1,0.5,0.3,0.7,0.4
	c0.2,0.1,0.5,0.2,0.7,0.3c1,0.4,2,0.7,3.1,0.9c0.5,0.1,1.1,0.1,1.6,0.2c0.1,0,0.3,0,0.4,0h0c0.4,0,0.8,0,1.3-0.1l0.1,0
	c0,0,0.1,0,0.1,0c0.8-0.1,1.5-0.2,2.2-0.5c1.2-0.4,2.4-0.9,3.4-1.7c2.2-1.6,3.4-3.5,3.7-4c0,0,0.5-1,0.8-2.4
	c0.4-1.8,0.4-4.5-1.2-7.2C22.2,8.6,20.9,7.3,19.3,6.5z"/>
<path class="st0" d="M9.3,22.4c0.8,0,1.7-0.1,2.4-0.3c2.2-0.6,3.6-1.9,3.9-2.3c0.8-0.8,1.4-1.7,1.8-2.7c0.5-1.2,0.6-2.5,0.6-3.7
	c0-0.1,0-0.5,0-0.9c0-0.6,0-1.1,0-1.4h-1.9v2.1c0,2.2-0.7,4.7-2.6,6.1c-2.3,1.8-6,1.6-8.5-0.2C2,16.8,1.4,12.4,2.5,9.1
	c1-3.2,3.7-5.6,6.9-6.6c2.9-0.9,6.1-0.8,8.8,0.3c3,1.2,5.4,3.4,7.1,6.1l-0.4-1c0.2,0.3,0.3,0.6,0.4,1c-0.3-0.8-0.6-1.5-1-2.3
	c-0.2-0.4-0.5-0.9-0.8-1.3c0,0-0.2-0.3-0.6-0.7c-0.2-0.2-0.3-0.3-0.3-0.3c-0.1-0.1-0.1-0.2-0.2-0.2c-0.6-0.6-1.2-1.2-1.9-1.7
	C13.9-2.3,4.4,0.2,1,7.4c0,0,0,0.1-0.1,0.1C0.7,8,0.6,8.4,0.4,8.9C0,10.2,0,11.5,0,12.7c0.1,1,0.1,2.5,0.9,4.2
	c0.3,0.6,1.7,3.5,5,4.9C7.5,22.4,8.9,22.4,9.3,22.4z"/>
<path class="st1" d="M30.4,7h10.3V9h-4.1v10.8h-2.2V9h-4V7z M39.6,10.5h1.9v1.8h0c0.1-0.3,0.2-0.5,0.3-0.7c0.2-0.2,0.4-0.5,0.6-0.7
	c0.2-0.2,0.5-0.4,0.8-0.5c0.3-0.1,0.6-0.2,0.9-0.2c0.2,0,0.4,0,0.5,0c0.1,0,0.2,0,0.3,0v2c-0.1,0-0.3,0-0.4-0.1c-0.1,0-0.3,0-0.4,0
	c-0.3,0-0.7,0.1-1,0.2c-0.3,0.1-0.6,0.3-0.8,0.6c-0.2,0.3-0.4,0.6-0.5,1c-0.1,0.4-0.2,0.8-0.2,1.4v4.4h-2V10.5z M53.2,19.8h-2v-1.3
	h0c-0.3,0.5-0.6,0.8-1.1,1.1c-0.5,0.3-1,0.4-1.5,0.4c-1.2,0-2.1-0.3-2.6-0.9c-0.5-0.6-0.8-1.5-0.8-2.7v-5.9h2v5.7
	c0,0.8,0.2,1.4,0.5,1.7c0.3,0.3,0.7,0.5,1.3,0.5c0.4,0,0.8-0.1,1.1-0.2c0.3-0.1,0.5-0.3,0.7-0.5c0.2-0.2,0.3-0.5,0.4-0.8
	c0.1-0.3,0.1-0.6,0.1-1v-5.4h2V19.8z M56.2,16.8c0.1,0.6,0.3,1,0.7,1.3c0.4,0.2,0.9,0.4,1.4,0.4c0.2,0,0.4,0,0.7,0
	c0.2,0,0.5-0.1,0.7-0.2c0.2-0.1,0.4-0.2,0.5-0.4c0.1-0.2,0.2-0.4,0.2-0.6c0-0.3-0.1-0.5-0.3-0.6c-0.2-0.2-0.4-0.3-0.7-0.4
	c-0.3-0.1-0.6-0.2-1-0.3c-0.4-0.1-0.7-0.1-1.1-0.2c-0.4-0.1-0.7-0.2-1.1-0.3c-0.4-0.1-0.7-0.3-0.9-0.5c-0.3-0.2-0.5-0.5-0.7-0.8
	c-0.2-0.3-0.3-0.7-0.3-1.2c0-0.5,0.1-0.9,0.4-1.3c0.2-0.3,0.6-0.6,0.9-0.8c0.4-0.2,0.8-0.4,1.3-0.4c0.5-0.1,0.9-0.1,1.3-0.1
	c0.5,0,0.9,0.1,1.4,0.2c0.4,0.1,0.8,0.3,1.2,0.5c0.4,0.2,0.6,0.5,0.9,0.9c0.2,0.4,0.4,0.8,0.4,1.3h-2.1c-0.1-0.5-0.3-0.8-0.7-1
	c-0.4-0.2-0.8-0.3-1.2-0.3c-0.1,0-0.3,0-0.5,0c-0.2,0-0.4,0.1-0.6,0.1c-0.2,0.1-0.3,0.2-0.4,0.3c-0.1,0.1-0.2,0.3-0.2,0.5
	c0,0.3,0.1,0.5,0.3,0.6c0.2,0.2,0.4,0.3,0.7,0.4c0.3,0.1,0.6,0.2,1,0.3c0.4,0.1,0.7,0.1,1.1,0.2c0.4,0.1,0.7,0.2,1.1,0.3
	c0.4,0.1,0.7,0.3,1,0.5c0.3,0.2,0.5,0.5,0.7,0.8c0.2,0.3,0.3,0.7,0.3,1.1c0,0.5-0.1,1-0.4,1.4c-0.3,0.4-0.6,0.7-1,0.9
	c-0.4,0.2-0.8,0.4-1.3,0.5c-0.5,0.1-1,0.2-1.4,0.2c-0.6,0-1.1-0.1-1.6-0.2c-0.5-0.1-0.9-0.3-1.3-0.6c-0.4-0.3-0.7-0.6-0.9-1
	c-0.2-0.4-0.3-0.9-0.3-1.4H56.2z M62.2,10.5h1.5V7.8h2v2.8h1.8v1.5h-1.8V17c0,0.2,0,0.4,0,0.6c0,0.2,0.1,0.3,0.1,0.4
	c0.1,0.1,0.2,0.2,0.3,0.2c0.1,0.1,0.3,0.1,0.5,0.1c0.1,0,0.3,0,0.4,0c0.1,0,0.3,0,0.4-0.1v1.6c-0.2,0-0.4,0-0.7,0.1
	c-0.2,0-0.4,0-0.7,0c-0.5,0-1-0.1-1.3-0.2c-0.3-0.1-0.6-0.3-0.8-0.4c-0.2-0.2-0.3-0.4-0.4-0.7c-0.1-0.3-0.1-0.6-0.1-1v-5.5h-1.5
	V10.5z M71.6,8.5h-4.3V7h10.2v1.4h-4.3v11.3h-1.7V8.5z M77.1,15.2c0,0.6,0.1,1.1,0.2,1.5c0.1,0.4,0.4,0.8,0.6,1.1s0.6,0.5,0.9,0.7
	c0.4,0.2,0.7,0.2,1.1,0.2c0.4,0,0.8-0.1,1.1-0.2c0.4-0.2,0.7-0.4,0.9-0.7c0.3-0.3,0.5-0.7,0.6-1.1c0.1-0.4,0.2-0.9,0.2-1.5
	c0-0.6-0.1-1.1-0.2-1.5c-0.1-0.4-0.4-0.8-0.6-1.1c-0.3-0.3-0.6-0.5-0.9-0.7s-0.7-0.2-1.1-0.2c-0.4,0-0.8,0.1-1.1,0.2
	c-0.4,0.2-0.7,0.4-0.9,0.7c-0.3,0.3-0.5,0.7-0.6,1.1C77.2,14.1,77.1,14.6,77.1,15.2z M75.5,15.2c0-0.7,0.1-1.3,0.3-1.9
	c0.2-0.6,0.5-1.1,0.9-1.5c0.4-0.4,0.9-0.8,1.4-1c0.6-0.3,1.2-0.4,1.9-0.4c0.7,0,1.4,0.1,1.9,0.4c0.6,0.3,1,0.6,1.4,1
	c0.4,0.4,0.7,0.9,0.9,1.5c0.2,0.6,0.3,1.2,0.3,1.9c0,0.7-0.1,1.3-0.3,1.9c-0.2,0.6-0.5,1.1-0.9,1.5c-0.4,0.4-0.8,0.8-1.4,1
	C81.3,19.9,80.7,20,80,20c-0.7,0-1.4-0.1-1.9-0.4c-0.6-0.2-1-0.6-1.4-1c-0.4-0.4-0.7-0.9-0.9-1.5C75.6,16.5,75.5,15.9,75.5,15.2z
	 M85.6,7h1.5v7.6l4.2-4h2l-3.7,3.4l3.9,5.9h-1.9L88.5,15l-1.4,1.3v3.5h-1.5V7z M100.4,14.3c0-0.4-0.1-0.7-0.2-1
	c-0.1-0.3-0.3-0.6-0.6-0.8c-0.2-0.2-0.5-0.4-0.8-0.6c-0.3-0.1-0.7-0.2-1-0.2c-0.4,0-0.7,0.1-1.1,0.2c-0.3,0.1-0.6,0.3-0.8,0.6
	c-0.2,0.2-0.4,0.5-0.5,0.8c-0.1,0.3-0.2,0.7-0.2,1H100.4z M101.9,16.9c-0.2,1-0.7,1.8-1.3,2.3C99.9,19.7,99,20,97.9,20
	c-0.7,0-1.4-0.1-1.9-0.4c-0.5-0.2-1-0.6-1.4-1c-0.4-0.4-0.6-0.9-0.8-1.5c-0.2-0.6-0.3-1.2-0.3-2c0-0.7,0.1-1.3,0.3-1.9
	c0.2-0.6,0.5-1.1,0.9-1.5c0.4-0.4,0.8-0.8,1.4-1c0.5-0.2,1.1-0.4,1.7-0.4c0.8,0,1.5,0.2,2,0.5c0.5,0.3,1,0.8,1.3,1.3
	c0.3,0.5,0.6,1.1,0.7,1.7c0.1,0.6,0.2,1.2,0.2,1.8h-6.9c0,0.4,0,0.8,0.1,1.2s0.3,0.7,0.5,1c0.2,0.3,0.5,0.5,0.9,0.7
	c0.4,0.2,0.8,0.3,1.3,0.3c0.6,0,1.2-0.1,1.6-0.4c0.4-0.3,0.7-0.8,0.8-1.4H101.9z M102.9,10.5v9.2h1.5v-5.2c0-0.4,0.1-0.8,0.2-1.2
	c0.1-0.4,0.3-0.7,0.5-0.9c0.2-0.3,0.5-0.5,0.8-0.6c0.3-0.1,0.7-0.2,1.2-0.2c0.6,0,1,0.2,1.4,0.5c0.3,0.3,0.5,0.8,0.5,1.4v6.3h1.5
	v-6.1c0-0.5-0.1-1-0.2-1.4c-0.1-0.4-0.3-0.8-0.5-1.1c-0.2-0.3-0.6-0.5-1-0.7c-0.4-0.2-0.9-0.3-1.5-0.3c-1.4,0-2.4,0.6-3,1.7h0v-1.5
	H102.9z"/>
</svg>
