<svg width="35px" height="36px" viewBox="0 0 35 36" version="1.1" xmlns="http://www.w3.org/2000/svg" xmlns:xlink="http://www.w3.org/1999/xlink">
    <!-- Generator: Sketch 51.3 (57544) - http://www.bohemiancoding.com/sketch -->
    <desc>Created with Sketch.</desc>
    <defs></defs>
    <g id="Page-1" stroke="none" stroke-width="1" fill="none" fill-rule="evenodd">
        <g id="tt_logosign_white" fill="#FFFFFF">
            <path d="M16.154824,30.45896 C15.057056,30.76528 13.921012,30.91648 12.780516,30.90752 C12.28122,30.90248 10.368036,30.85348 8.197336,29.96084 C3.648176,28.08764 1.6664676,24.028396 1.3033972,23.247364 C0.21307412,20.901832 0.11387824,18.833556 0.03098564,17.466232 C-0.11662924,14.995204 0.2627688,12.45524 1.3859776,10.231928 C6.070008,0.24838268 19.187588,-3.158568 28.23352,3.28958 C30.40884,4.846884 32.137,6.778296 33.44432,9.102436 C34.02084,10.12242 34.44,11.059972 34.86,12.179972 C32.76,9.239972 29.15416,5.376028 25.087664,3.79302 C21.23506,2.2927716 16.830128,2.183384 12.892964,3.437504 C8.489124,4.840136 4.787384,8.050672 3.401972,12.493992 C1.9491332,17.150084 2.7504344,23.225496 7.018592,26.209316 C10.396512,28.5712 15.480332,28.85456 18.669504,26.430824 C21.228424,24.486196 22.238608,21.085876 22.238608,18.007976 L22.238608,15.177288 L24.896452,15.177288 C24.900848,16.251872 24.90278,17.327016 24.88346,18.401488 C24.85252,20.112316 24.671808,21.933352 24.029656,23.534504 C23.459184,24.944976 22.614256,26.230736 21.542864,27.318788 C21.068432,27.802544 19.21164,29.60776 16.154824,30.45896 Z" id="Shape"></path>
            <path d="M26.57676,8.946224 C25.007108,8.140776 23.289532,7.616868 21.542388,7.375004 C20.288968,7.201432 18.996936,7.226548 17.719884,7.251384 C17.33438,7.258888 16.950136,7.266364 16.568804,7.268324 L8.363376,7.310184 L8.363376,18.146072 L14.609084,18.146072 L14.609084,25.650268 C14.609084,25.650268 17.082436,24.92798 17.220224,21.537712 C17.27502,20.172264 17.286528,18.901708 17.279668,17.871672 L17.279668,15.339912 L11.454184,15.339912 L11.454184,10.153276 L19.923428,10.153276 C24.213784,10.153276 28.34384,12.26372 30.24308,16.244648 C31.65344,19.199376 31.19088,22.028804 31.00384,23.082668 C30.57964,25.47244 29.47336,27.465228 27.937952,29.07156 C24.371592,32.80284 18.485824,34.44616 13.438012,34.11604 C11.528748,33.98248 9.672152,33.67056 7.89138,32.94956 C10.432324,34.9034 13.882428,35.72884 17.054492,35.83076 C18.971764,35.8932 20.893796,35.64708 22.72606,35.0728 C24.392592,34.55732 25.966668,33.78088 27.389516,32.7726 C30.46848,30.5942 32.02668,27.939072 32.44052,27.199032 C32.44052,27.199032 33.15284,25.888828 33.57172,23.830912 C34.08244,21.313936 34.15188,17.680712 31.93512,13.954472 C30.66168,11.80928 28.79408,10.08434 26.57676,8.946224 Z" id="Shape" fill-rule="nonzero"></path>
        </g>
    </g>
</svg>
