<svg width="545" height="128" viewBox="0 0 545 128" fill="none" xmlns="http://www.w3.org/2000/svg">
<path fill-rule="evenodd" clip-rule="evenodd" d="M57.6938 108.782C53.7733 109.876 49.716 110.416 45.6427 110.384C43.8595 110.366 37.0268 110.191 29.2743 107.003C13.0272 100.313 5.94972 85.8157 4.65303 83.0263C0.759026 74.6494 0.404755 67.2627 0.10871 62.3794C-0.418486 53.5543 0.936507 44.483 4.94797 36.5426C21.6766 0.887081 68.5252 -11.2806 100.832 11.7485C108.601 17.3103 114.773 24.2082 119.442 32.5087C121.501 36.1515 122.998 39.4999 124.498 43.4999C116.998 32.9999 104.12 19.2001 89.5968 13.5465C75.8375 8.18847 60.1056 7.7978 46.0444 12.2768C30.3164 17.2862 17.0959 28.7524 12.148 44.6214C6.95924 61.2503 9.82102 82.9482 25.0645 93.6047C37.1284 102.04 55.285 103.052 66.6749 94.3958C75.8139 87.4507 79.4217 75.3067 79.4217 64.3142V54.2046H88.9139C88.9297 58.0424 88.9366 61.8822 88.8676 65.7196C88.757 71.8297 88.1117 78.3334 85.8183 84.0518C83.7808 89.0892 80.7632 93.6812 76.9369 97.5671C75.2425 99.2948 68.611 105.742 57.6938 108.782Z" fill="white"/>
<path d="M94.915 31.9508C89.3092 29.0742 83.175 27.2031 76.9351 26.3393C72.4586 25.7194 67.8442 25.8091 63.2834 25.8978C61.9065 25.9246 60.5342 25.9513 59.1724 25.9583L29.8672 26.1078V64.8074H52.1734V91.6081C52.1734 91.6081 61.0068 89.0285 61.4989 76.9204C61.6945 72.0438 61.7356 67.5061 61.7112 63.8274V54.7854H40.9058V36.2617H71.1531C86.4759 36.2617 101.226 43.799 108.009 58.0166C113.046 68.5692 111.394 78.6743 110.726 82.4381C109.212 90.973 105.26 98.0901 99.7764 103.827C87.0394 117.153 66.0188 123.022 47.991 121.843C41.1722 121.366 34.5414 120.252 28.1815 117.677C37.2563 124.655 49.5782 127.603 60.907 127.967C67.7544 128.19 74.6188 127.311 81.1625 125.26C87.1145 123.419 92.7361 120.646 97.8178 117.045C108.814 109.265 114.379 99.7824 115.857 97.1394C115.857 97.1394 118.401 92.4601 119.897 85.1104C121.722 76.1212 121.969 63.1454 114.052 49.8374C109.504 42.176 102.834 36.0155 94.915 31.9508Z" fill="white"/>
<path fill-rule="evenodd" clip-rule="evenodd" d="M149.84 34.5836H200.747V44.0955H180.754V97.4681H169.745V44.0955H149.84V34.5836ZM194.833 51.9341H204.256V60.7414H204.433C204.726 59.5084 205.299 58.3047 206.15 57.1304C207.001 55.9561 208.029 54.8845 209.233 53.9157C210.436 52.9469 211.772 52.1689 213.24 51.5818C214.708 50.9946 216.205 50.7011 217.732 50.7011C218.906 50.7011 219.713 50.7304 220.154 50.7891C220.594 50.8478 221.049 50.9066 221.519 50.9653V60.6534C220.814 60.5359 220.095 60.4332 219.361 60.3451C218.627 60.257 217.908 60.213 217.203 60.213C215.5 60.213 213.901 60.5506 212.403 61.2258C210.906 61.9011 209.6 62.8992 208.484 64.2203C207.368 65.5414 206.488 67.1708 205.842 69.1084C205.196 71.046 204.873 73.2772 204.873 75.802V97.4681H194.833V51.9341ZM262.107 97.4681H252.243V91.1268H252.067C250.834 93.4167 248.999 95.2515 246.562 96.6314C244.126 98.0112 241.645 98.7011 239.12 98.7011C233.131 98.7011 228.801 97.2185 226.129 94.2534C223.458 91.2882 222.122 86.8112 222.122 80.8222V51.9341H232.162V79.8534C232.162 83.846 232.926 86.6644 234.452 88.3084C235.979 89.9525 238.122 90.7745 240.882 90.7745C242.995 90.7745 244.757 90.4515 246.166 89.8057C247.575 89.1598 248.72 88.2937 249.601 87.2075C250.482 86.1212 251.113 84.8148 251.494 83.2882C251.876 81.7616 252.067 80.1176 252.067 78.3561V51.9341H262.107V97.4681ZM276.538 82.8479C276.832 85.7837 277.947 87.8387 279.885 89.013C281.822 90.1873 284.142 90.7745 286.843 90.7745C287.782 90.7745 288.854 90.7011 290.057 90.5543C291.261 90.4075 292.391 90.1286 293.448 89.7176C294.505 89.3066 295.371 88.7048 296.046 87.9121C296.721 87.1194 297.03 86.0772 296.971 84.7855C296.912 83.4937 296.443 82.4369 295.562 81.6148C294.681 80.7928 293.551 80.1323 292.171 79.6332C290.791 79.1341 289.221 78.7084 287.459 78.3561C285.698 78.0038 283.907 77.6222 282.087 77.2112C280.208 76.8001 278.402 76.3011 276.67 75.7139C274.938 75.1268 273.382 74.3341 272.002 73.3359C270.622 72.3378 269.521 71.0607 268.699 69.5047C267.877 67.9488 267.466 66.0258 267.466 63.7359C267.466 61.2699 268.068 59.2001 269.272 57.5267C270.476 55.8533 272.002 54.5029 273.852 53.4754C275.701 52.4478 277.756 51.7286 280.017 51.3176C282.277 50.9066 284.435 50.7011 286.49 50.7011C288.839 50.7011 291.085 50.9506 293.228 51.4497C295.371 51.9488 297.309 52.7561 299.041 53.8717C300.773 54.9873 302.211 56.4405 303.356 58.2313C304.501 60.0222 305.221 62.1799 305.514 64.7047H295.033C294.564 62.2974 293.463 60.6827 291.731 59.8607C289.999 59.0387 288.017 58.6277 285.786 58.6277C285.081 58.6277 284.244 58.6864 283.276 58.8038C282.307 58.9212 281.397 59.1414 280.545 59.4644C279.694 59.7873 278.975 60.257 278.388 60.8735C277.8 61.4901 277.507 62.2974 277.507 63.2956C277.507 64.5286 277.932 65.5267 278.784 66.2901C279.635 67.0534 280.751 67.6845 282.131 68.1836C283.51 68.6827 285.081 69.1084 286.843 69.4607C288.604 69.813 290.424 70.1946 292.303 70.6057C294.123 71.0167 295.914 71.5157 297.676 72.1029C299.437 72.6901 301.008 73.4827 302.388 74.4809C303.767 75.4791 304.883 76.7414 305.734 78.268C306.586 79.7947 307.011 81.6735 307.011 83.9047C307.011 86.6057 306.395 88.8956 305.162 90.7745C303.929 92.6534 302.329 94.18 300.362 95.3543C298.395 96.5286 296.208 97.38 293.8 97.9084C291.393 98.4369 289.015 98.7011 286.666 98.7011C283.789 98.7011 281.132 98.3781 278.696 97.7323C276.259 97.0864 274.145 96.1029 272.355 94.7818C270.564 93.4607 269.155 91.8167 268.127 89.8497C267.099 87.8827 266.556 85.5488 266.498 82.8479H276.538ZM306.381 51.9341H313.956V38.2827H323.996V51.9341H333.068V59.4203H323.996V83.7286C323.996 84.7855 324.04 85.6956 324.128 86.4589C324.216 87.2222 324.422 87.868 324.745 88.3965C325.068 88.9249 325.552 89.3213 326.198 89.5855C326.844 89.8497 327.725 89.9818 328.84 89.9818C329.545 89.9818 330.249 89.9671 330.954 89.9378C331.659 89.9084 332.363 89.8057 333.068 89.6295V97.38C331.952 97.4974 330.866 97.6148 329.809 97.7323C328.752 97.8497 327.666 97.9084 326.55 97.9084C323.908 97.9084 321.78 97.6589 320.165 97.1598C318.55 96.6607 317.288 95.9268 316.378 94.958C315.468 93.9891 314.851 92.7708 314.528 91.3029C314.205 89.835 314.015 88.1616 313.956 86.2827V59.4203H306.381V51.9341ZM352.431 41.6295H331.469V34.5836H381.759V41.6295H360.798V97.4681H352.431V41.6295ZM379.456 74.7451C379.456 77.5048 379.823 79.9561 380.557 82.0992C381.291 84.2424 382.303 86.0332 383.595 87.4717C384.887 88.9103 386.399 90.0112 388.131 90.7745C389.863 91.5378 391.698 91.9194 393.636 91.9194C395.573 91.9194 397.408 91.5378 399.14 90.7745C400.872 90.0112 402.384 88.9103 403.676 87.4717C404.968 86.0332 405.98 84.2424 406.714 82.0992C407.448 79.9561 407.815 77.5048 407.815 74.7451C407.815 71.9855 407.448 69.5341 406.714 67.391C405.98 65.2478 404.968 63.4424 403.676 61.9745C402.384 60.5066 400.872 59.391 399.14 58.6277C397.408 57.8644 395.573 57.4827 393.636 57.4827C391.698 57.4827 389.863 57.8644 388.131 58.6277C386.399 59.391 384.887 60.5066 383.595 61.9745C382.303 63.4424 381.291 65.2478 380.557 67.391C379.823 69.5341 379.456 71.9855 379.456 74.7451ZM371.529 74.7451C371.529 71.3983 371.999 68.2717 372.938 65.3653C373.878 62.4588 375.287 59.9341 377.166 57.791C379.045 55.6478 381.364 53.9598 384.124 52.7267C386.883 51.4937 390.054 50.8772 393.636 50.8772C397.276 50.8772 400.461 51.4937 403.191 52.7267C405.922 53.9598 408.226 55.6478 410.105 57.791C411.984 59.9341 413.393 62.4588 414.333 65.3653C415.272 68.2717 415.742 71.3983 415.742 74.7451C415.742 78.0919 415.272 81.2038 414.333 84.0809C413.393 86.958 411.984 89.468 410.105 91.6112C408.226 93.7543 405.922 95.4277 403.191 96.6314C400.461 97.835 397.276 98.4369 393.636 98.4369C390.054 98.4369 386.883 97.835 384.124 96.6314C381.364 95.4277 379.045 93.7543 377.166 91.6112C375.287 89.468 373.878 86.958 372.938 84.0809C371.999 81.2038 371.529 78.0919 371.529 74.7451ZM421.277 34.5836H428.763V71.8387L449.549 51.9341H459.589L441.534 68.4919L460.91 97.4681H451.398L435.809 73.6882L428.763 80.2057V97.4681H421.277V34.5836ZM494.453 70.3414C494.335 68.58 493.939 66.9066 493.264 65.3212C492.589 63.7359 491.679 62.3708 490.534 61.2258C489.389 60.0809 488.038 59.1708 486.482 58.4956C484.926 57.8203 483.209 57.4827 481.33 57.4827C479.392 57.4827 477.646 57.8203 476.09 58.4956C474.534 59.1708 473.198 60.0955 472.082 61.2699C470.967 62.4442 470.086 63.8093 469.44 65.3653C468.794 66.9213 468.412 68.58 468.295 70.3414H494.453ZM501.675 83.024C500.677 88.1323 498.475 91.9781 495.069 94.5616C491.664 97.1451 487.378 98.4369 482.211 98.4369C478.57 98.4369 475.414 97.8497 472.743 96.6754C470.071 95.5011 467.825 93.857 466.005 91.7433C464.185 89.6295 462.82 87.1048 461.91 84.169C461 81.2332 460.486 78.0332 460.368 74.569C460.368 71.1047 460.897 67.9341 461.954 65.057C463.011 62.1799 464.493 59.6846 466.401 57.5708C468.31 55.457 470.57 53.813 473.183 52.6387C475.796 51.4644 478.658 50.8772 481.77 50.8772C485.822 50.8772 489.183 51.7139 491.855 53.3873C494.526 55.0607 496.669 57.1891 498.284 59.7726C499.899 62.3561 501.014 65.1744 501.631 68.2277C502.247 71.2809 502.497 74.1873 502.379 76.9469H468.295C468.236 78.9433 468.471 80.8368 469 82.6277C469.528 84.4185 470.379 86.0038 471.554 87.3836C472.728 88.7635 474.225 89.8644 476.045 90.6864C477.866 91.5084 480.009 91.9194 482.475 91.9194C485.646 91.9194 488.244 91.1855 490.269 89.7176C492.295 88.2497 493.631 86.0185 494.277 83.024H501.675ZM506.417 51.9341V97.4681H513.904V71.7506C513.904 69.6955 514.183 67.802 514.74 66.0699C515.298 64.3378 516.135 62.8258 517.25 61.5341C518.366 60.2423 519.761 59.2442 521.434 58.5396C523.107 57.835 525.089 57.4827 527.379 57.4827C530.256 57.4827 532.517 58.3047 534.161 59.9488C535.805 61.5928 536.627 63.824 536.627 66.6423V97.4681H544.113V67.5231C544.113 65.057 543.863 62.8112 543.364 60.7855C542.865 58.7598 541.999 57.013 540.766 55.5451C539.533 54.0772 537.918 52.9323 535.922 52.1102C533.926 51.2882 531.43 50.8772 528.436 50.8772C521.683 50.8772 516.751 53.6368 513.639 59.1561H513.463V51.9341H506.417Z" fill="white"/>
</svg>
